<?xml version="1.0" encoding="UTF-8"?>
<!DOCTYPE svg PUBLIC "-//W3C//DTD SVG 1.1//EN" "http://www.w3.org/Graphics/SVG/1.1/DTD/svg11.dtd">
<!-- Creator: CorelDRAW X7 -->
<svg xmlns="http://www.w3.org/2000/svg" xml:space="preserve" width="224.149mm" height="240mm" version="1.1" style="shape-rendering:geometricPrecision; text-rendering:geometricPrecision; image-rendering:optimizeQuality; fill-rule:evenodd; clip-rule:evenodd"
viewBox="0 0 23104 24735"
 xmlns:xlink="http://www.w3.org/1999/xlink">
 <defs>
  <style type="text/css">
   <![CDATA[
    .fil0 {fill:white;fill-rule:nonzero}
   ]]>
  </style>
 </defs>
 <g id="Слой_x0020_1">
  <metadata id="CorelCorpID_0Corel-Layer"/>
  <path class="fil0" d="M14790 902l2538 1466 -2 4 2543 1468c490,270 947,608 1354,1008 389,384 738,831 1031,1338l3 -2c288,498 500,1025 641,1565 140,540 205,1093 199,1642l7 0 0 5953 -7 0c6,549 -59,1102 -199,1642 -141,541 -353,1068 -641,1566l-3 -2c-293,507 -642,954 -1031,1337 -407,400 -864,739 -1353,1010l-2544 1466 2 4 -2538 1465c-472,287 -997,514 -1560,670 -547,152 -1111,233 -1678,233 -567,0 -1131,-81 -1678,-233 -564,-156 -1088,-383 -1561,-668l-2537 -1467 2 -4 -2543 -1468c-490,-269 -947,-608 -1354,-1008 -389,-383 -738,-830 -1031,-1338l-4 2c-287,-498 -499,-1025 -640,-1565 -140,-540 -205,-1093 -199,-1642l-7 0 0 -5953 7 0c-6,-549 59,-1101 199,-1642 141,-540 353,-1067 640,-1565l4 1c293,-507 642,-954 1031,-1337 407,-400 864,-738 1353,-1009l2544 -1467 -2 -4 2538 -1465c472,-287 996,-513 1560,-670 547,-152 1111,-233 1678,-233 567,0 1131,81 1678,233 563,157 1088,383 1560,669zm610 4795l-2597 -1497c-193,-116 -394,-205 -597,-261 -194,-54 -413,-83 -654,-83 -241,0 -460,29 -654,83 -203,56 -404,145 -597,261l-2597 1497 -8 0 -2595 1500c-188,105 -366,236 -524,393 -157,154 -293,326 -402,514l0 8c-114,197 -197,400 -249,601 -56,215 -81,434 -78,648l8 30 0 5953 -8 30c-3,214 22,433 78,648 52,201 135,404 249,601l0 8c109,188 245,360 402,515 158,156 336,288 524,392l2595 1500 8 0 2597 1497c193,117 394,205 597,262 194,53 413,82 654,82 241,0 460,-29 654,-82 203,-57 404,-145 597,-262l2597 -1497 8 0 2594 -1500c189,-104 367,-236 525,-392 157,-155 293,-327 402,-515l0 -7c114,-198 197,-401 249,-602 56,-215 81,-434 78,-648l-8 -30 0 -5953 8 -30c3,-214 -22,-433 -78,-648 -52,-201 -135,-403 -249,-601l0 -8c-109,-188 -245,-360 -402,-514 -158,-157 -336,-288 -525,-393l-2594 -1500 -8 0z"/>
 </g>
</svg>
